<?xml version="1.0"?>
<svg xmlns="http://www.w3.org/2000/svg" height="1024" preserveAspectRatio="none" style="display: block;" version="1.1" viewBox="0 0 2048 2048" width="1024">

<path d="M 809.842 628.738 C 921.031 503.138 1038.09 360.131 1217.55 343.208 C 1234.8 341.581 1310.44 358.708 1331.2 363.524 C 1319.9 382 1296.57 415.448 1282.48 432.264 C 1266.76 427.773 1249.12 421.632 1233.37 418.793 C 1185.59 410.178 1138.2 418.642 1096.04 442.414 C 1054.93 465.59 1029.42 492.23 999.84 527.423 C 1001.92 539.51 1001.17 568.65 1001.12 581.529 C 989.836 589.479 982.763 601.928 975.458 613.681 C 944.463 663.825 923.353 719.437 913.266 777.517 C 909.871 796.999 908.556 814.626 906.905 834.017 C 903.985 868.312 907.173 876.335 926.862 904.303 C 928.412 906.503 929.985 908.686 931.582 910.852 C 929.43 893.974 927.416 862.926 927.579 846.089 C 956.044 860.882 986.58 882.201 1011.94 901.876 C 1026.19 912.931 1049.55 930.747 1062.42 943.406 C 1101.79 982.16 1134.73 1034.47 1158.2 1084.22 C 1168.03 1105.05 1176.35 1128.29 1184.84 1149.68 C 1163.77 1163.56 1139.47 1176.85 1117.41 1189.57 C 1089.89 1205.44 1062.51 1221.56 1035.29 1237.95 C 1026.83 1196.23 1019.74 1163.59 1003.88 1123.56 C 966.577 1029.42 885.085 930.381 801.049 874.267 L 799.976 877.326 C 892.516 967.224 982.813 1091.97 993.59 1224.89 C 931.028 1188.84 869.325 1151.15 806.98 1114.73 C 759.854 1087.2 711.652 1061.02 665.238 1032.35 C 710.714 858.421 801.197 699.535 927.582 571.681 C 890.332 584.254 844.662 610.606 811.174 631.916 C 808.768 633.608 807.943 633.967 805.36 635.237 C 805.255 633.404 808.246 630.672 809.842 628.738 z" fill="rgb(30,58,95)" transform="translate(0,0)"/>
<path d="M 788.916 864.702 C 791.802 866.982 798.817 872.119 801.049 874.267 L 799.976 877.326 C 795.21 872.646 793.074 869.917 788.916 864.702 z" fill="rgb(221,227,233)" transform="translate(0,0)"/>
<path d="M 1515.92 988.859 L 1517.16 989.13 C 1518.48 991.941 1517.99 1120.46 1518 1134.89 C 1449.48 1176.5 1377.42 1214.2 1307.6 1254.03 C 1212.66 1308.18 1120.41 1366.96 1025.72 1421.29 C 992.504 1401.75 958.761 1383.13 925.326 1363.32 C 860.616 1324.46 795.649 1286.04 730.431 1248.04 C 664.103 1210.28 595.749 1175.28 530.63 1135.42 C 529.692 1120.51 530.311 1098.19 530.267 1082.89 C 530.056 1051.73 530.088 1020.57 530.363 989.41 C 561.278 1005.41 588.872 1022.42 619.02 1039.33 C 710.072 1091 800.568 1143.64 890.492 1197.25 C 934.309 1223.29 982.449 1252.93 1027.21 1276.92 C 1049.35 1263.48 1072.28 1250.84 1094.65 1237.71 L 1229.15 1157.95 C 1323.82 1101.52 1419.9 1042.64 1515.92 988.859 z" fill="rgb(226,98,29)" transform="translate(0,0)"/>
<path d="M 1516.95 1170.21 C 1518.27 1172.02 1518.48 1459.22 1517.57 1482.99 C 1501.54 1493.02 1482.27 1503.61 1465.77 1513.17 L 1356.26 1576.66 L 1040.88 1761.66 L 1037.37 1604.17 C 1036.67 1562.34 1034.44 1520.68 1035.82 1478.87 C 1036.15 1468.89 1036.09 1458.7 1036.22 1448.7 C 1066.83 1432.1 1097.34 1413.63 1127.82 1396.65 C 1140.84 1389.4 1153.06 1381.27 1166.44 1374.28 C 1166.48 1426.17 1168.72 1478.86 1170.08 1530.77 C 1189.69 1521.58 1221.81 1501.18 1241.25 1489.89 C 1292.08 1460.38 1342.02 1428.65 1393.35 1399.85 L 1389.78 1242.04 C 1402.11 1233.74 1420.17 1224.48 1433.35 1216.59 C 1461.22 1199.92 1487.76 1184.5 1516.95 1170.21 z" fill="rgb(30,58,95)" transform="translate(0,0)"/>
<path d="M 531.013 1169.8 C 545.132 1176.14 572.061 1192.38 586.31 1200.62 C 609.451 1214.01 638.034 1228.61 660.048 1242.87 C 660.001 1294.8 658.236 1346.75 657.989 1398.53 C 714.922 1431.17 770.133 1465.82 827.281 1498.06 C 845.79 1508.51 864.987 1521.41 883.629 1531.14 C 923.528 1553.53 963.926 1579.14 1004.22 1600.22 C 1000.95 1650.6 1000.7 1706.18 998.96 1756.88 C 985.251 1750.39 958.974 1733.94 944.518 1725.53 L 818.715 1651.74 L 647.844 1552.81 L 576.756 1511.59 C 562.088 1503.21 544.347 1494.04 530.372 1485.07 C 529.345 1453.76 530.059 1418.34 530.038 1386.61 C 529.761 1314.34 530.085 1242.07 531.013 1169.8 z" fill="rgb(226,98,29)" transform="translate(0,0)"/>
<path d="M 1501.98 504.876 L 1506.84 502.448 L 1507.97 502.903 C 1505.86 505.758 1505.53 506.065 1502.91 508.487 C 1432.57 575.05 1375.53 657.48 1353.47 752.608 C 1349.1 771.474 1344.3 794.35 1343.28 813.677 L 1342.71 818.773 L 1341.82 818.587 L 1339.91 814.855 C 1325.43 777.772 1320.8 754.983 1321.41 714.536 L 1317.95 712.479 C 1314.66 720.58 1311.86 728.877 1309.58 737.322 C 1292.47 799.281 1296.03 860.886 1326.62 917.521 C 1346.88 955.049 1372.29 989.716 1393.36 1026.94 C 1374.58 1039.66 1348.49 1054.11 1328.59 1065.89 C 1289.49 1089.3 1250.21 1112.4 1210.75 1135.18 C 1203.3 1112.58 1196.36 1091.96 1187.28 1069.92 C 1181.3 1055.4 1172.25 1038.18 1167.53 1023.69 C 1145.1 954.924 1141.05 883.402 1161.74 814.116 C 1212.72 643.378 1357.95 581.462 1501.98 504.876 z" fill="rgb(30,58,95)" transform="translate(0,0)"/>
<path d="M 1317.95 712.479 C 1318.57 711.466 1319.83 708.551 1321.1 708.81 C 1321.94 709.871 1321.44 713.31 1321.41 714.536 L 1317.95 712.479 z" fill="rgb(221,227,233)" transform="translate(0,0)"/>
<path d="M 1303.32 573.426 C 1309.68 573.203 1316.36 573.826 1322.73 574.253 C 1313.79 578.865 1307.01 583.928 1298.71 589.467 C 1204.81 652.128 1131.26 754.262 1118.42 868.164 C 1115 898.569 1115.01 926.613 1115.1 956.928 C 1105.21 946.019 1094.76 932.078 1083.93 922.316 C 1056.08 897.226 1026.26 872.917 995.426 851.805 C 975.343 838.322 953.928 826.939 931.518 817.837 C 939.106 758.261 975.408 643.329 1018.18 599.642 C 1026.4 612.669 1038.79 643.991 1045.27 659.155 C 1106.52 627.09 1173.62 594.486 1241.65 580.112 C 1261.72 575.873 1282.88 574.481 1303.32 573.426 z" fill="rgb(226,98,29)" transform="translate(0,0)"/>
<path d="M 1754.17 351.679 C 1757.04 351.181 1758.93 350.277 1761.05 351.272 C 1757.81 353.589 1757.25 353.839 1753.54 355.397 C 1726.51 367.464 1699.7 379.999 1673.1 392.996 C 1603.51 426.232 1534.51 460.7 1466.14 496.383 C 1437.19 511.206 1398.02 532.952 1368.45 547.831 C 1365.36 549.384 1329.59 548.862 1323.13 548.914 L 1259.59 550.008 C 1291.3 530.705 1318.61 510.136 1352.36 490.714 C 1478.13 418.337 1608.64 364.624 1754.17 351.679 z" fill="rgb(0,0,0)" transform="translate(0,0)"/>
<path d="M 881.068 1373.62 C 907.976 1386.53 932.853 1401.82 958.324 1417.34 C 972.163 1425.78 993.545 1437.76 1006.07 1447.2 C 1006.24 1481.66 1005.95 1516.13 1005.19 1550.59 C 1004.96 1565.78 1005.45 1585.46 1004.22 1600.22 C 963.926 1579.14 923.528 1553.53 883.629 1531.14 C 882.744 1519.95 882.701 1506.96 882.787 1495.6 C 883.097 1455.09 880.584 1414.03 881.068 1373.62 z" fill="rgb(30,58,95)" transform="translate(0,0)"/>
<path d="M 1601.43 290.428 C 1655.78 285.71 1722.56 305.859 1765.93 338.822 C 1746.5 342.142 1719.36 341.049 1698.45 343.442 C 1646.97 349.336 1598.45 360.309 1549.14 376.291 C 1504.15 388.828 1470.9 405.148 1428.94 422.195 C 1428.95 379.82 1446.73 363.249 1476 337.507 C 1483.22 331.159 1484.15 323.92 1483.75 314.802 C 1526.23 299.349 1556.66 293.098 1601.43 290.428 z" fill="rgb(30,58,95)" transform="translate(0,0)"/>
<path d="M 1462.14 323.114 L 1463.45 323.824 C 1452.47 361.342 1407.06 380.05 1422.07 425.783 C 1417.77 429.177 1405.77 434.395 1399.97 437.289 C 1385.6 444.438 1371.28 451.677 1357 459.006 C 1323.57 476.51 1291.17 495.918 1259.96 517.133 L 1257.28 518.738 L 1256.56 517.832 C 1267.67 475.02 1319.98 401.969 1350.8 369.609 C 1360.17 359.759 1444.92 328.057 1462.14 323.114 z" fill="rgb(30,58,95)" transform="translate(0,0)"/>
<path d="M 692.146 871.869 L 693.169 872.236 C 693.157 872.381 669.521 918.83 666.518 926.111 C 654.233 955.896 646.449 986.719 635.904 1017.03 C 619.509 1006.13 593.184 992.462 574.933 981.877 C 562.568 974.826 549.991 967.159 537.705 959.891 C 544.519 955.297 552.498 950.448 559.61 946.34 C 603.303 921.1 647.442 895.19 692.146 871.869 z" fill="rgb(0,0,0)" transform="translate(0,0)"/>
<path d="M 1050.27 511.765 C 1087.85 470.492 1123.69 442.565 1181.45 440.058 C 1206.05 438.99 1248.36 444.114 1271.86 453.033 C 1252.4 490.28 1190.16 513.244 1150.73 516.494 C 1160.75 499.86 1171.29 497.65 1184.73 486.696 C 1142.46 480.152 1090.52 491.547 1053.68 512.944 C 1050.91 514.739 1050.03 515.602 1046.73 516.055 C 1047.06 513.779 1047.98 513.761 1050.27 511.765 z" fill="rgb(0,0,0)" transform="translate(0,0)"/>
<path d="M 1361.01 875.857 C 1374.67 881.391 1405.6 900.844 1420.17 909.045 C 1449.71 925.674 1480.95 941.946 1509.97 959.114 L 1477.46 977.903 C 1458.47 989.854 1438.82 999.64 1419.51 1010.73 C 1398.38 967.793 1370.11 923.331 1361.01 875.857 z" fill="rgb(0,0,0)" transform="translate(0,0)"/>
<metadata><recraft-signature>{"signed_by": "recraft", "signature_b64": "DQyOVD2B6i//cwFXJ6dIe4O+bFGz11nfgNbfYLRYymGPwqKndLFC00yz4YO0pXoUJDDzLKz6qbV3n+GFYZMPDg==", "signing_algo": "Ed25519", "generation_timestamp": 1780199316, "identifier": "21f2a2a8-5723-4b22-a562-50cda5e417f4"}</recraft-signature></metadata></svg>
